<svg width="353" height="276" viewBox="0 0 353 276" fill="none" xmlns="http://www.w3.org/2000/svg">
<path d="M100 264.471C159.647 264.471 219.294 264.471 278.941 264.471C292.847 264.471 306.624 264.521 320.497 265.088C326.398 265.328 332.281 264.819 338.162 264.471C345.847 264.016 341.091 258.053 337.843 254.776C334.912 251.818 331.568 249.549 327.521 247.725C323.618 245.967 319.039 245.728 315.549 243.319C309.194 238.933 305.939 233.07 298.149 229.923C288.841 226.162 279.625 229.386 269.949 226.574C262.092 224.29 258.757 216.372 250.74 214.984C245.265 214.037 240.138 216.388 235.044 217.496C228.828 218.847 223.493 213.214 219.72 210.049C211.212 202.912 202.758 195.777 189.284 198.636C174.984 201.67 166.008 210.746 160.924 221.506C158.608 226.408 155.793 225.444 150.123 225.604C142.335 225.824 135.396 227.323 131.074 233.139C130.021 234.557 129.104 237.152 127.403 238.295C123.162 241.144 116.294 240.732 111.387 242.261C107.896 243.349 95.7972 250.915 104.895 253.454C110.524 255.025 119.046 254.697 124.316 254.6C142.132 254.271 159.917 252.793 177.685 251.78C205.916 250.169 235.028 247.906 263.244 250.854C279.113 252.512 294.93 257.038 311.026 256.979C311.458 256.978 318.395 256.87 319.326 255.481C320.811 253.269 310.804 248.081 309.855 247.461C298.278 239.897 288.336 239.137 273.567 238.912C244.27 238.466 215.273 240.365 186.092 242.129C178.013 242.617 169.078 243.127 160.924 243.231C157.008 243.281 145.516 244.206 141.822 241.292C140.477 240.231 144.111 238.621 145.866 238.119C155.884 235.255 167.124 234.277 177.578 233.36C196.003 231.743 214.8 232.94 233.128 230.804C236.761 230.381 239.614 229.801 242.706 228.248C244.754 227.219 249.99 224.743 247.761 224.018C244.128 222.836 239.957 224.203 236.055 224.282C221.734 224.571 207.465 224.056 193.222 222.784C191.428 222.624 172.586 222.529 175.982 216.659C179.613 210.382 190.746 208.713 198.117 209.828C199.259 210.001 216.997 215.818 210.249 217.276C205.761 218.245 200.085 216.312 195.776 215.293" stroke="#D8EAFC" stroke-width="20" stroke-linecap="round"/>
<path d="M99.7015 266.465C92.4508 265.237 89.9193 260.907 90.2448 255.5C90.6606 248.714 95.9948 244.504 103.408 242.752C108.182 241.613 113.48 241.958 118.995 241.598C125.161 228.7 138.668 228.985 153.332 230.019C154.543 213.735 165.013 203.729 184.631 201.467C204.449 199.175 217.992 207.219 226.997 221.24C247.05 213.046 256.76 214.979 268.567 229.285C294.948 222.469 305.779 225.884 315.923 244.25C332.287 240.235 342.883 246.497 342.377 261.851C336.446 250.706 330.642 241.209 314.784 247.86C300.554 227.112 289.09 224.056 269.182 234.168C262.274 229.195 256.633 223.307 249.256 220.296C240.504 216.716 231.282 220.896 227.829 226.873C221.97 221.18 216.582 214.274 209.277 209.271C201.303 203.818 190.96 203.549 180.834 205.496C165.826 208.387 159.498 215.862 156.768 233.928C133.93 230.213 123.244 234.438 125.667 246.826C114.944 245.987 103.137 241.853 95.4342 251.71C90.9499 257.462 96.0128 262.001 99.4845 266.57L99.6834 266.48L99.7015 266.465Z" fill="black"/>
<path d="M215.135 42.4829C216.853 40.5804 218.589 38.678 220.234 36.8504C212.911 25.0011 202.352 25.3307 190.653 38.5881C189.441 35.2325 188.555 32.5211 187.488 29.8697C180.563 12.8673 163.639 2.15652 146.352 3.77436C126.499 5.63189 117.169 20.7019 126.969 35.0378C127.783 36.2212 128.488 37.4346 130.007 39.8464C104.258 23.1286 84.8022 30.5587 77.6418 51.8005C75.0019 35.2176 91.5105 25.84 118.543 28.8061C118.633 27.3081 118.742 25.84 118.814 24.372C119.628 8.29835 135.16 -2.14277 154.345 0.448786C170.293 2.60592 180.726 10.5903 187.778 22.125C189.387 24.7764 190.671 27.5627 192.117 30.3041C207.179 22.874 210.217 23.3084 222.332 33.405C223.706 34.5584 226.961 34.7382 229.203 34.5135C238.352 33.5847 245.531 36.0564 251.064 42.7975C239.003 36.0115 227.232 35.8168 215.66 44.5202C215.479 43.8311 215.298 43.157 215.117 42.4679L215.135 42.4829Z" fill="black"/>
<path d="M99.5024 266.555C128.379 266.51 157.256 266.405 186.15 266.435C234.935 266.48 283.719 266.57 332.486 266.72C337.657 266.735 342.828 267.229 347.982 267.514C347.928 268.263 347.873 269.012 347.837 269.761C335.921 269.761 324.023 269.761 312.108 269.761C243.144 269.701 174.198 269.671 105.234 269.446C103.462 269.446 97.8208 272.083 99.6833 266.48L99.5024 266.57V266.555Z" fill="black"/>
<path d="M51.785 174.757C58.4391 166.158 66.6843 160.406 79.4862 162.383C90.064 164.001 95.1812 170.008 96.4107 178.472C111.328 182.367 114.963 186.187 112.015 193.842C109.556 190.726 107.658 185.618 103.86 184.299C100.063 182.981 94.3494 185.438 89.4673 186.247C92.6859 178.787 94.2409 170.188 80.5892 166.203C71.0059 163.402 62.2182 166.758 54.8408 175.806C57.318 178.038 59.8132 180.3 62.3085 182.562C50.4107 176.959 38.8384 172.855 26.6875 181.228C20.2323 185.678 21.2268 191.265 26.0365 197.662C16.4713 195.684 7.08688 190.471 0.794434 201.032C1.11991 194.276 3.61521 192.344 11.3904 191.31C13.6144 191.01 16.9053 190.216 17.5743 188.898C24.9155 174.502 31.877 171.431 51.7669 174.772L51.785 174.757Z" fill="black"/>
<path d="M239.98 59.1108H83.7354C83.7354 58.5266 83.7354 57.9573 83.7354 57.3731H240.07C240.034 57.9573 239.998 58.5266 239.98 59.1108Z" fill="black"/>
<path d="M3.99487 203.549H113.281C113.281 204.118 113.281 204.687 113.281 205.256H3.99487C3.99487 204.687 3.99487 204.118 3.99487 203.549Z" fill="black"/>
</svg>
