<svg width="257" height="411" viewBox="0 0 257 411" fill="none" xmlns="http://www.w3.org/2000/svg">
<path d="M37.9359 340.683C44.5059 332.215 50.6201 323.483 57.7199 315.341C75.1619 295.354 95.1789 277.196 116.425 259.961C117.771 258.871 119.53 258.132 121.088 257.235C120.738 256.804 120.388 256.374 120.039 255.943C113.871 254.826 107.736 253.595 101.537 252.619C97.0121 251.907 94.9458 250.104 95.0412 246.068C95.2849 236.694 95.2849 227.312 94.9564 217.938C94.8292 214.307 93.4941 210.71 92.7841 207.088C92.1483 203.843 93.4941 201.882 97.7009 201.17C101.102 200.598 104.345 199.402 107.895 198.418C106.634 195.296 105.383 192.412 104.324 189.484C102.925 185.65 104.483 183.32 109.135 183.935C113.935 184.568 118.608 186.52 122.995 188.428C125.528 189.536 127.382 191.717 129.279 193.203C134.81 187.91 140.193 182.757 145.873 177.323C145.312 176.751 144.4 175.705 143.351 174.773C112.875 147.311 91.682 115.559 80.6509 79.3839C79.0191 74.0464 80.2907 67.6625 82.0073 62.1404C87.3268 45.0288 98.146 30.1595 113.384 18.0249C130.042 4.74714 151.246 0.227434 173.838 0.755027C182.728 0.95727 191.799 2.22349 200.382 4.21955C234.09 12.0719 248.353 33.7032 255.347 59.7662C258.77 72.5252 256.968 85.0115 248.968 96.7329C236.358 115.199 224.214 133.884 211.646 152.376C209.898 154.953 209.421 156.975 210.968 159.631C215.822 167.923 220.94 176.136 225.051 184.683C227.605 190.002 229.438 195.815 229.926 201.504C230.455 207.765 226.143 212.495 219.318 215.617C217.644 216.382 216.203 218.176 215.599 219.741C213.194 225.984 211.085 232.315 209.04 238.646C208.044 241.724 207.069 244.854 206.687 248.02C205.797 255.424 205.765 262.916 204.398 270.249C203.561 274.778 201.845 279.57 198.909 283.395C191.153 293.49 182.686 303.215 174.198 312.905C161.217 327.713 161.779 323.334 169.726 340.067C172.1 345.079 175.576 350.32 175.448 355.394C175.311 360.951 176.455 365.365 180.111 369.788C181.16 371.055 181.531 373.297 180.99 374.792C177.07 385.695 172.926 396.546 168.624 407.353C168.105 408.654 166.229 409.578 164.979 410.677C163.94 409.147 161.959 407.59 162.012 406.078C162.298 397.742 162.807 389.397 163.792 381.105C164.597 374.299 162.234 372.409 153.969 372.725C150.769 372.848 146.35 371.573 144.347 369.621C133.369 358.902 126.725 346.196 124.161 332.452C123.143 327.018 125.835 321.03 127.308 315.376C128.187 311.999 129.999 308.79 130.964 305.264C107.598 326.297 84.0207 347.049 57.8682 366.561C54.0746 361.628 50.7155 357.249 47.3246 352.835C42.0368 355.913 37.2684 358.92 32.1926 361.487C30.9104 362.138 27.8162 361.989 26.8625 361.162C15.9268 351.674 7.08917 340.947 0.233149 329.111C-0.042363 328.645 0.127183 328.003 0.0106201 326.28C13.5849 330.245 22.8464 337.605 31.1647 346.82C33.6337 344.596 35.8272 342.617 38.0313 340.63C45.0887 348.21 52.1354 355.798 59.3623 363.58C59.4683 363.51 60.4432 362.93 61.2591 362.235C80.0999 346.17 98.6546 329.876 117.845 314.101C128.95 304.965 137.883 295.011 142.323 282.428C143.436 279.28 145.524 276.378 147.166 273.362C147.558 273.511 147.94 273.652 148.332 273.802C147.622 275.42 146.912 277.038 146.202 278.655C140.162 292.399 133.782 306.055 128.272 319.948C126.524 324.354 125.846 329.603 126.905 334.105C129.766 346.258 135.806 357.469 144.263 367.792C146.636 370.685 149.307 371.661 153.1 371.107C160.274 370.052 166.494 367.467 171.178 362.719C174.018 359.834 175.247 356.66 173.382 352.967C171.75 349.731 170.309 346.425 168.773 343.154C159.066 322.507 157.699 329.049 174.071 310.047C182.061 300.77 190.051 291.476 197.373 281.847C205.193 271.559 202.735 259.697 204.144 249.33C196.663 254.087 189.277 259.196 181.329 263.593C178.712 265.035 173.202 265.993 171.464 264.78C167.776 262.177 164.131 263.478 160.528 262.968C159.14 262.775 157.741 262.59 156.353 262.353C146.371 260.594 136.41 258.73 126.386 257.156C124.691 256.892 122.105 257.376 120.95 258.352C92.0847 282.753 64.8302 308.271 42.0262 336.867C40.903 338.282 39.3135 339.443 37.9359 340.727V340.683ZM128.113 195.234C122.963 190.996 118.396 185.975 110.152 185.773C108.562 185.878 106.973 185.993 105.235 186.116C107.164 190.785 109.463 194.803 110.396 199.033C111.455 203.808 114.963 204.872 119.742 204.731C122.349 204.652 125.019 204.291 127.52 203.667C130.943 202.805 131.939 198.593 129.438 196.386C128.993 196.008 128.548 195.621 128.103 195.243L128.113 195.234ZM148.3 246.34L145.036 243.544C146.456 243.738 147.897 243.834 149.275 244.142C151.277 244.591 153.291 245.76 155.177 245.602C157.551 245.4 159.797 244.177 162.669 243.201V214.817C160.91 215.23 159.617 215.617 158.271 215.828C152.337 216.76 149.964 219.249 151.023 224.569C151.881 228.877 151.193 233.397 151.193 237.82C150.673 237.82 150.144 237.802 149.624 237.793C149.624 231.023 149.624 224.252 149.614 217.481C152.104 216.435 154.774 215.599 157.031 214.28C158.473 213.436 159.299 211.88 160.401 210.64C160.03 210.359 159.649 210.069 159.278 209.787C156.205 210.605 153.132 211.414 150.059 212.232C149.921 211.985 149.794 211.748 149.656 211.502C151.044 210.587 152.433 209.673 154.234 208.486C149.762 207.431 145.81 206.296 141.751 205.584C132.861 204.028 127.912 206.859 127.88 213.12C135.202 214.597 142.472 216.065 149.741 217.534C142.779 217.059 135.817 216.584 128.293 216.074C128.293 228.605 128.251 241.021 128.41 253.437C128.41 254.184 129.957 255.354 131.006 255.573C135.987 256.629 141.052 257.42 145.693 258.238C144.294 254.465 142.959 250.939 141.783 247.378C141.73 247.202 143.182 246.692 143.934 246.332L148.332 249.902C149.582 250.86 150.832 251.827 152.761 253.322C150.726 253.217 149.561 253.155 147.993 253.076C149.285 254.43 153.46 255.09 148.681 256.778C154.17 260.462 160.179 261.289 166.462 260.999C167.692 260.937 169.694 259.838 169.875 259.003C170.659 255.345 170.913 251.599 171.347 247.958C166.59 247.264 162.69 246.692 158.663 246.103C159.267 247.062 159.776 247.862 160.655 249.26C156.004 248.161 152.146 247.255 148.3 246.34ZM174.579 136.373C172.227 132.521 169.864 128.67 167.31 124.502C163.125 126.841 158.695 129.206 154.435 131.774C153.227 132.495 151.871 133.717 151.691 134.825C150.462 142.317 148.755 149.844 148.745 157.362C148.734 162.972 152.941 167.369 160.189 168.441C165.456 169.215 168.38 171.669 169.419 175.766C170.129 178.58 172.407 179.16 174.866 178.255C177.833 177.156 180.673 175.573 183.014 173.717C183.936 172.988 184 170.71 183.364 169.549C178.85 161.372 180.831 156.377 190.167 151.049C191.894 150.064 192.636 147.1 192.594 145.069C192.573 143.988 189.563 141.842 188.472 142.071C182.855 143.223 179.751 140.206 176.201 137.771C175.66 137.305 175.12 136.847 174.579 136.381V136.373ZM81.1384 76.2799C87.8355 70.7314 95.8041 67.4691 104.557 70.7138C112.134 73.5188 118.65 78.2935 125.57 82.1625C136.029 66.4754 155.559 69.2629 170.945 81.8108C176.127 75.805 182.262 71.0215 192.096 73.4309C200.743 75.55 206.115 80.8172 209.856 87.6935C211.657 85.8117 213.109 84.185 214.709 82.6549C222.688 75.0136 230.901 73.5188 242.303 77.5549C242.896 77.7659 243.585 77.7747 244.242 77.8714C247.527 78.3727 250.812 78.8739 254.478 79.4366C256.491 69.8081 254.33 59.3705 249.932 49.2847C243.86 35.3475 236.178 21.6829 220.251 13.936C188.08 -1.71586 154.255 -2.66553 123.112 14.4548C97.6267 28.4624 85.038 50.6301 81.149 76.2887L81.1384 76.2799ZM169.758 116.72C169.758 107.285 169.281 98.342 169.917 89.4609C170.404 82.5846 165.901 79.1728 159.479 76.8163C155.495 75.3566 151.172 74.4157 146.89 73.6859C136.845 71.9712 125.104 82.1713 126.057 89.839C128.77 111.734 132.193 133.445 139.95 154.557C142.694 162.04 145.799 169.426 148.851 177.147C151.182 176.25 152.697 175.669 154.064 175.142C152.994 172.091 152.878 168.899 150.97 166.876C145.174 160.703 145.396 153.871 146.244 146.766C146.371 145.702 146.414 144.084 145.661 143.574C140.299 139.951 142.26 136.047 144.792 132.161C150.26 123.79 159.024 118.997 169.758 116.72ZM136.135 166.032C136.516 165.839 136.887 165.645 137.269 165.452C136.792 164.572 136.283 163.702 135.849 162.814C123.408 137.278 117.008 110.837 118.481 83.2001C118.544 82.0922 118.502 80.7644 117.845 79.8675C111.339 71.0567 93.653 69.2101 84.7201 76.2535C82.5901 77.933 81.9013 79.4542 82.8656 81.9867C91.237 104.005 102.459 124.924 117.771 144.234C123.641 151.638 129.999 158.76 136.135 166.015V166.032ZM201.135 137.331C201.505 136.302 201.951 135.537 202.067 134.728C203.964 121.231 206.062 107.751 207.599 94.2268C208.584 85.5655 201.813 77.977 191.767 75.4181C181.891 72.8945 171.496 79.6389 171.877 88.1947C172.238 96.3723 172.619 104.568 172.534 112.745C172.503 115.832 173.636 116.852 177.197 117.036C184.159 117.397 189.669 120.149 193.251 125.117C196.038 128.978 198.39 133.04 201.135 137.331ZM173.626 247.791C172.979 253.393 172.386 258.528 171.793 263.681C188.005 263.004 205.31 247.185 211.297 227.91C217.665 207.404 210.693 185.518 194.999 177.595C193.738 180.69 192.35 183.689 191.333 186.767C190.273 189.976 189.584 193.265 188.758 196.421C191.64 197.362 195.455 197.652 196.366 199.156C197.383 200.844 195.741 203.614 195.349 205.927C195.253 206.472 195.593 207.07 195.667 207.642C196.059 210.543 196.652 213.445 196.769 216.356C197.436 232.562 190.093 242.427 173.636 247.791H173.626ZM207.8 152.165C208.743 150.873 209.442 150.081 209.951 149.22C222.116 128.283 233.772 107.162 242.027 84.8884C243.818 80.0522 242.048 77.7483 235.849 76.9569C224.903 75.5676 210.322 85.7414 209.358 95.0094C207.906 108.832 206.592 122.699 204.027 136.39C202.925 142.29 204.918 146.81 207.81 152.174L207.8 152.165ZM96.8108 212.487C96.8108 224.621 96.779 236.448 96.8956 248.275C96.8956 249.022 98.0188 250.28 98.8454 250.429C103.434 251.256 108.086 251.81 113.257 252.531C113.257 243.272 113.214 234.514 113.257 225.756C113.299 217.402 107.814 212.976 96.8002 212.478L96.8108 212.487ZM174.717 245.18C193.887 237.873 196.981 225.518 192.647 205.347C187.359 206.982 182.092 208.521 176.932 210.288C175.957 210.622 174.813 211.862 174.802 212.698C174.654 223.355 174.707 234.021 174.707 245.18H174.717ZM166.738 174.614C160.196 175.869 156.424 178.858 155.421 183.583C156.353 183.196 157.084 182.915 157.794 182.599C163.061 180.242 164.884 180.761 166.643 185.518C167.607 188.147 167.904 190.952 168.794 193.599C169.143 194.645 170.192 196.228 171.114 196.325C175.713 196.808 180.365 196.879 183.269 197.011C185.642 189.448 187.836 182.941 189.627 176.355C189.966 175.124 188.684 173.594 187.868 171.458C178.405 182.282 171.517 183.073 166.749 174.614H166.738ZM126.057 254.377C126.057 242.955 125.803 231.744 126.185 220.541C126.322 216.391 124.955 214.518 119.89 214.834C118.566 214.914 117.22 214.843 115.556 214.843C115.556 226.072 115.98 237.02 115.355 247.932C115.09 252.601 117.442 253.78 121.946 254.166C123.133 254.272 124.341 254.29 126.047 254.377H126.057ZM122.592 83.2968C121.851 83.4551 121.109 83.6222 120.367 83.7805C119.975 114.24 127.075 143.372 143.224 171.739C143.743 170.693 143.892 170.534 143.86 170.429C143.627 169.734 143.383 169.031 143.076 168.345C131.854 142.581 125.136 116.113 124.807 88.6167C124.786 86.8317 123.366 85.0643 122.592 83.2881V83.2968ZM224.119 131.633C233.232 117.406 242.822 102.774 251.808 87.8869C252.889 86.0931 251.246 82.611 249.72 80.4742C248.438 78.6628 246.075 78.5397 244.877 81.4503C238.011 98.2893 230.975 115.093 224.108 131.633H224.119ZM172.407 245.76V212.082C167.427 212.425 164.481 213.683 165.159 218.536C165.784 223.012 165.382 227.585 165.413 232.104C165.435 236.431 165.413 240.757 165.413 245.224C168.084 245.426 170.118 245.584 172.407 245.76ZM144.231 201.627C151.203 200.466 158.038 199.385 164.831 198.119C165.721 197.951 167.088 196.685 166.96 196.122C165.922 191.524 164.576 186.978 163.326 182.414C162.701 182.308 162.086 182.194 161.461 182.089C156.215 186.089 151.161 190.266 145.672 194.021C142.429 196.237 141.348 198.277 144.241 201.636L144.231 201.627ZM160.157 201.231C165.445 202.867 173.997 200.194 175.046 208.477C180.853 206.929 186.31 205.681 191.534 203.957C193.145 203.43 194.12 201.574 195.381 200.334C194.967 199.912 194.565 199.481 194.151 199.059C182.824 200.414 171.157 195.815 160.157 201.24V201.231ZM109.103 200.009C99.2339 202.706 94.6314 206.185 95.2955 210.447C100.7 210.886 106.21 211.344 113.553 211.941C111.879 207.431 110.533 203.852 109.103 200V200.009ZM151.903 178.263C143.563 181.156 138.403 186.441 132.956 192.614C138.572 192.034 143.192 194.25 147.706 190.073C151.553 186.512 152.687 183.188 151.892 178.263H151.903ZM143.86 202.357C143.786 202.876 143.711 203.403 143.637 203.922C151.744 205.883 159.712 208.802 168.995 204.96C167.554 208.486 160.232 206.982 163.103 212.232C164.979 211.669 167.035 211.423 168.465 210.508C169.875 209.611 171.22 208.099 171.453 206.727C171.559 206.094 169.016 204.599 167.522 204.441C159.659 203.588 151.744 203.025 143.849 202.366L143.86 202.357ZM114.825 212.126C118.417 212.443 121.618 212.733 125.157 213.049C125.559 210.438 125.888 208.38 126.418 204.942C122.455 208.547 114.21 203.544 114.825 212.126ZM140.172 197.96C137.205 199.226 134.916 200.211 132.617 201.187C133.941 202.067 135.202 203.579 136.601 203.685C139.918 203.931 141.232 202.207 140.172 197.96ZM140.617 196.298C140.596 195.903 140.575 195.516 140.554 195.12H132.373C132.384 195.516 132.394 195.903 132.405 196.298H140.617Z" fill="black"/>
<path d="M81.5729 37.616C79.888 46.2334 78.1502 53.6636 77.0481 61.1466C75.9673 68.5066 75.5434 75.9368 74.8228 83.3055C71.0504 77.9856 75.2679 46.6818 81.5623 37.6072L81.5729 37.616Z" fill="black"/>
<path d="M87.7719 258.616V225.377C88.1533 225.36 88.5348 225.351 88.9057 225.333V258.598H87.7719V258.616Z" fill="black"/>
<path d="M72.7777 101.648C66.7482 91.3073 64.7031 81.3446 66.8224 69.9926C68.8569 80.8171 70.7431 90.7973 72.7777 101.648Z" fill="black"/>
<path d="M110.237 185.702C109.463 190.064 112.229 192.104 116.987 192.957C120.717 193.634 124.404 194.469 128.103 195.234C128.548 195.612 128.993 195.999 129.438 196.377C123.249 195.199 116.807 194.54 110.978 192.614C107.895 191.594 105.966 188.349 110.226 185.694L110.237 185.702Z" fill="black"/>
<path d="M148.289 246.34C150.409 247.703 152.528 249.066 154.637 250.42L154.456 251.018C152.411 250.649 150.366 250.28 148.321 249.91L143.923 246.34L145.026 243.553L148.289 246.349V246.34Z" fill="black"/>
<path d="M176.19 137.762C175.293 138.741 173.262 138.158 170.097 136.012C172.397 136.197 173.488 136.285 174.579 136.373C175.12 136.839 175.66 137.296 176.201 137.762H176.19Z" fill="black"/>
<path d="M162.372 138.509C161.376 142.695 160.444 146.661 159.532 150.477C155.527 149.255 156.046 144.234 162.372 138.509Z" fill="black"/>
<path d="M157.551 154.997C161.694 154.53 165.805 154.073 169.525 153.651C167.056 157.722 161.863 158.347 157.551 154.997Z" fill="black"/>
<path d="M157.349 138.061C157.095 139.406 156.83 140.752 156.576 142.097C156.035 142.035 155.484 141.974 154.944 141.912C155.156 140.567 155.368 139.222 155.58 137.876C156.173 137.938 156.766 137.999 157.36 138.061H157.349Z" fill="black"/>
<path d="M154.679 134.376L159.13 133.717C159.236 134.13 159.341 134.544 159.447 134.957C158.017 135.238 156.576 135.528 155.145 135.81C154.997 135.335 154.838 134.86 154.69 134.376H154.679Z" fill="black"/>
<path d="M151.172 146.45C152.549 146.159 153.937 145.869 155.315 145.57L155.781 146.757C154.425 147.118 153.079 147.487 151.723 147.848L151.172 146.45Z" fill="black"/>
<path d="M174.166 140.338C173.922 141.631 173.679 142.923 173.435 144.216C172.895 144.155 172.354 144.084 171.803 144.023C172.015 142.765 172.216 141.508 172.428 140.259L174.166 140.338Z" fill="black"/>
<path d="M155.156 149.589C154.488 149.905 153.895 150.336 153.725 150.239C153.291 150.002 153.047 149.527 152.729 149.149C153.174 149.026 153.641 148.78 154.064 148.815C154.404 148.85 154.69 149.237 155.156 149.589Z" fill="black"/>
<path d="M176.582 146.889C175.904 147.144 175.374 147.505 175.141 147.399C174.802 147.25 174.622 146.784 174.505 146.414C174.484 146.335 175.109 145.966 175.3 146.027C175.703 146.159 176.01 146.485 176.582 146.889Z" fill="black"/>
<path d="M172.693 146.872C172.089 147.215 171.761 147.478 171.39 147.557C171.21 147.593 170.701 147.232 170.733 147.109C170.796 146.784 171.083 146.493 171.273 146.195C171.655 146.379 172.036 146.555 172.704 146.872H172.693Z" fill="black"/>
<path d="M162.139 186.766C159.946 187.171 158.695 187.408 156.099 187.892C157.752 186.626 158.42 185.694 159.098 185.694C160.55 185.694 161.991 186.168 163.442 186.441C162.86 188.173 162.881 190.38 161.567 191.541C157.265 195.34 151.68 197.274 145.29 197.652C150.758 194.293 158.653 193.651 162.139 186.775V186.766Z" fill="black"/>
</svg>
